<svg id="e1PN0QwyToB1" xmlns="http://www.w3.org/2000/svg" xmlns:xlink="http://www.w3.org/1999/xlink" viewBox="0 0 1000 650" shape-rendering="geometricPrecision" text-rendering="geometricPrecision" project-id="276596991689487da00b2d9c53e956ef" export-id="3a340c69c4b041a5a110231601b23163" cached="false" width="1000" height="650">
<style><![CDATA[
#e1PN0QwyToB3_to {animation: e1PN0QwyToB3_to__to 4000ms linear infinite normal forwards}@keyframes e1PN0QwyToB3_to__to { 0% {transform: translate(719.537927px,564.546509px)} 100% {transform: translate(719.537926px,0px)}}
]]></style>
<defs><linearGradient id="e1PN0QwyToB61-fill" x1="0.5" y1="0" x2="0.5" y2="1" spreadMethod="pad" gradientUnits="objectBoundingBox" gradientTransform="translate(0 0)"><stop id="e1PN0QwyToB61-fill-0" offset="0%" stop-color="rgba(0,0,0,0)"/><stop id="e1PN0QwyToB61-fill-1" offset="14.9478%" stop-color="#000"/><stop id="e1PN0QwyToB61-fill-2" offset="82.6301%" stop-color="#000"/><stop id="e1PN0QwyToB61-fill-3" offset="100%" stop-color="rgba(0,0,0,0)"/></linearGradient></defs><g transform="matrix(0 0.916481-.916481 0 834.920302-383.000458)" mask="url(#e1PN0QwyToB60)"><g id="e1PN0QwyToB3_to" transform="translate(719.537927,564.546509)"><g transform="translate(-719.537926,0)"><g transform="translate(0 0.000001)"><rect width="580" height="9" rx="0" ry="0" transform="matrix(0 0.666372-1 0 56.325767 153.17671)" opacity="0.3" fill="#c9b36e"/><rect width="580" height="9" rx="0" ry="0" transform="matrix(0 0.666372-1 0 278.896489 0)" opacity="0.3" fill="#c9b36e"/><rect width="580" height="9" rx="0" ry="0" transform="matrix(0 0.666372-1 0 501.467211 61.453736)" opacity="0.3" fill="#c9b36e"/><rect width="580" height="9" rx="0" ry="0" transform="matrix(0 0.666372-1 0 724.037934 47.462096)" opacity="0.3" fill="#c9b36e"/><rect width="580" height="9" rx="0" ry="0" transform="matrix(0 0.666372-1 0 946.608655 153.17671)" opacity="0.3" fill="#c9b36e"/><rect width="580" height="9" rx="0" ry="0" transform="matrix(0 0.666372-1 0 1169.179377 178.050737)" opacity="0.3" fill="#c9b36e"/><rect width="580" height="9" rx="0" ry="0" transform="matrix(0 0.666372-1 0 1391.750099 153.17671)" opacity="0.3" fill="#c9b36e"/><rect width="580" height="9" rx="0" ry="0" transform="matrix(0 0.666372-1 0 167.611128 70.781495)" opacity="0.3" fill="#c9b36e"/><rect width="580" height="9" rx="0" ry="0" transform="matrix(0 0.666372-1 0 390.18185 153.17671)" opacity="0.3" fill="#c9b36e"/><rect width="580" height="9" rx="0" ry="0" transform="matrix(0 0.666372-1 0 612.752572 153.17671)" opacity="0.3" fill="#c9b36e"/><rect width="580" height="9" rx="0" ry="0" transform="matrix(0 0.666372-1 0 835.323294 112.756416)" opacity="0.3" fill="#c9b36e"/><rect width="580" height="9" rx="0" ry="0" transform="matrix(0 0.666372-1 0 1057.894016 30.361201)" opacity="0.3" fill="#c9b36e"/><rect width="580" height="9" rx="0" ry="0" transform="matrix(0 0.666372-1 0 1280.464738 30.361201)" opacity="0.3" fill="#c9b36e"/></g><g transform="translate(0 565)"><rect width="580" height="9" rx="0" ry="0" transform="matrix(0 0.666372-1 0 56.325767 153.17671)" opacity="0.3" fill="#c9b36e"/><rect width="580" height="9" rx="0" ry="0" transform="matrix(0 0.666372-1 0 278.896489 0)" opacity="0.3" fill="#c9b36e"/><rect width="580" height="9" rx="0" ry="0" transform="matrix(0 0.666372-1 0 501.467211 61.453736)" opacity="0.3" fill="#c9b36e"/><rect width="580" height="9" rx="0" ry="0" transform="matrix(0 0.666372-1 0 724.037934 47.462096)" opacity="0.3" fill="#c9b36e"/><rect width="580" height="9" rx="0" ry="0" transform="matrix(0 0.666372-1 0 946.608655 153.17671)" opacity="0.3" fill="#c9b36e"/><rect width="580" height="9" rx="0" ry="0" transform="matrix(0 0.666372-1 0 1169.179377 178.050737)" opacity="0.3" fill="#c9b36e"/><rect width="580" height="9" rx="0" ry="0" transform="matrix(0 0.666372-1 0 1391.750099 153.17671)" opacity="0.3" fill="#c9b36e"/><rect width="580" height="9" rx="0" ry="0" transform="matrix(0 0.666372-1 0 167.611128 70.781495)" opacity="0.3" fill="#c9b36e"/><rect width="580" height="9" rx="0" ry="0" transform="matrix(0 0.666372-1 0 390.18185 153.17671)" opacity="0.3" fill="#c9b36e"/><rect width="580" height="9" rx="0" ry="0" transform="matrix(0 0.666372-1 0 612.752572 153.17671)" opacity="0.3" fill="#c9b36e"/><rect width="580" height="9" rx="0" ry="0" transform="matrix(0 0.666372-1 0 835.323294 112.756416)" opacity="0.3" fill="#c9b36e"/><rect width="580" height="9" rx="0" ry="0" transform="matrix(0 0.666372-1 0 1057.894016 30.361201)" opacity="0.3" fill="#c9b36e"/><rect width="580" height="9" rx="0" ry="0" transform="matrix(0 0.666372-1 0 1280.464738 30.361201)" opacity="0.3" fill="#c9b36e"/></g><g transform="translate(0-564.546509)"><rect width="580" height="9" rx="0" ry="0" transform="matrix(0 0.666372-1 0 56.325767 153.17671)" opacity="0.3" fill="#c9b36e"/><rect width="580" height="9" rx="0" ry="0" transform="matrix(0 0.666372-1 0 278.896489 0)" opacity="0.3" fill="#c9b36e"/><rect width="580" height="9" rx="0" ry="0" transform="matrix(0 0.666372-1 0 501.467211 61.453736)" opacity="0.3" fill="#c9b36e"/><rect width="580" height="9" rx="0" ry="0" transform="matrix(0 0.666372-1 0 724.037934 47.462096)" opacity="0.3" fill="#c9b36e"/><rect width="580" height="9" rx="0" ry="0" transform="matrix(0 0.666372-1 0 946.608655 153.17671)" opacity="0.3" fill="#c9b36e"/><rect width="580" height="9" rx="0" ry="0" transform="matrix(0 0.666372-1 0 1169.179377 178.050737)" opacity="0.3" fill="#c9b36e"/><rect width="580" height="9" rx="0" ry="0" transform="matrix(0 0.666372-1 0 1391.750099 153.17671)" opacity="0.3" fill="#c9b36e"/><rect width="580" height="9" rx="0" ry="0" transform="matrix(0 0.666372-1 0 167.611128 70.781495)" opacity="0.3" fill="#c9b36e"/><rect width="580" height="9" rx="0" ry="0" transform="matrix(0 0.666372-1 0 390.18185 153.17671)" opacity="0.3" fill="#c9b36e"/><rect width="580" height="9" rx="0" ry="0" transform="matrix(0 0.666372-1 0 612.752572 153.17671)" opacity="0.3" fill="#c9b36e"/><rect width="580" height="9" rx="0" ry="0" transform="matrix(0 0.666372-1 0 835.323294 112.756416)" opacity="0.3" fill="#c9b36e"/><rect width="580" height="9" rx="0" ry="0" transform="matrix(0 0.666372-1 0 1057.894016 30.361201)" opacity="0.3" fill="#c9b36e"/><rect width="580" height="9" rx="0" ry="0" transform="matrix(0 0.666372-1 0 1280.464738 30.361201)" opacity="0.3" fill="#c9b36e"/></g><g transform="translate(0-1125.738829)"><rect width="580" height="9" rx="0" ry="0" transform="matrix(0 0.666372-1 0 56.325767 153.17671)" opacity="0.3" fill="#c9b36e"/><rect width="580" height="9" rx="0" ry="0" transform="matrix(0 0.666372-1 0 278.896489 0)" opacity="0.3" fill="#c9b36e"/><rect width="580" height="9" rx="0" ry="0" transform="matrix(0 0.666372-1 0 501.467211 61.453736)" opacity="0.3" fill="#c9b36e"/><rect width="580" height="9" rx="0" ry="0" transform="matrix(0 0.666372-1 0 724.037934 47.462096)" opacity="0.3" fill="#c9b36e"/><rect width="580" height="9" rx="0" ry="0" transform="matrix(0 0.666372-1 0 946.608655 153.17671)" opacity="0.3" fill="#c9b36e"/><rect width="580" height="9" rx="0" ry="0" transform="matrix(0 0.666372-1 0 1169.179377 178.050737)" opacity="0.3" fill="#c9b36e"/><rect width="580" height="9" rx="0" ry="0" transform="matrix(0 0.666372-1 0 1391.750099 153.17671)" opacity="0.3" fill="#c9b36e"/><rect width="580" height="9" rx="0" ry="0" transform="matrix(0 0.666372-1 0 167.611128 70.781495)" opacity="0.3" fill="#c9b36e"/><rect width="580" height="9" rx="0" ry="0" transform="matrix(0 0.666372-1 0 390.18185 153.17671)" opacity="0.3" fill="#c9b36e"/><rect width="580" height="9" rx="0" ry="0" transform="matrix(0 0.666372-1 0 612.752572 153.17671)" opacity="0.3" fill="#c9b36e"/><rect width="580" height="9" rx="0" ry="0" transform="matrix(0 0.666372-1 0 835.323294 112.756416)" opacity="0.3" fill="#c9b36e"/><rect width="580" height="9" rx="0" ry="0" transform="matrix(0 0.666372-1 0 1057.894016 30.361201)" opacity="0.3" fill="#c9b36e"/><rect width="580" height="9" rx="0" ry="0" transform="matrix(0 0.666372-1 0 1280.464738 30.361201)" opacity="0.3" fill="#c9b36e"/></g></g></g><mask id="e1PN0QwyToB60" mask-type="alpha" x="-150%" y="-150%" height="400%" width="400%"><rect width="1441.805902" height="704.933165" rx="0" ry="0" transform="matrix(1 0 0 1.547849 0-178.050922)" fill="url(#e1PN0QwyToB61-fill)" stroke-width="0"/></mask></g></svg>
