<svg xmlns="http://www.w3.org/2000/svg" width="160" height="87" fill="none" viewBox="0 0 160 87">
  <rect width="120.3" height="38.8" x=".8" y=".8" fill="#000" fill-opacity=".5" rx="19.4"/>
  <rect width="120.3" height="38.8" x=".8" y=".8" stroke="#fff" stroke-width="1.7" rx="19.4"/>
  <path fill="#fff" d="M29 16.8a6 6 0 0 0-.8-1.5 4.8 4.8 0 0 0-2.6-2 5.9 5.9 0 0 0-4.8.6c-.8.6-1.5 1.4-2 2.5-.6 1.1-.8 2.4-.8 4s.2 3 .7 4c.6 1.2 1.3 2 2.2 2.6.9.5 1.9.8 3 .8s2-.2 2.8-.6c.8-.5 1.5-1 1.9-1.9.4-.8.7-1.7.7-2.8l.7.1h-5.6v-2.4h7.7v2.2c0 1.7-.3 3.1-1 4.3a7.2 7.2 0 0 1-3 2.8 8 8 0 0 1-4.1 1 8.4 8.4 0 0 1-7.9-4.7 12 12 0 0 1-1-5.4c0-1.5.1-3 .6-4.2.4-1.2 1-2.3 1.8-3.2a8 8 0 0 1 2.8-2 9 9 0 0 1 6.5-.2 8 8 0 0 1 4.2 3.4c.5.8.8 1.7 1 2.6h-3Zm6.7 13.4V15.6h2.7V18h.2c.2-.8.7-1.5 1.4-2a4 4 0 0 1 2.3-.6 12.2 12.2 0 0 1 1.2 0v2.8H43l-.9-.2a4 4 0 0 0-1.8.5 3.2 3.2 0 0 0-1.7 2.9v9h-2.8Zm16 .3c-1.4 0-2.6-.3-3.6-.9-1-.6-1.9-1.5-2.4-2.7a8.8 8.8 0 0 1-.9-4c0-1.5.3-2.8.9-4a6.4 6.4 0 0 1 6-3.6 6.7 6.7 0 0 1 6 3.6c.6 1.2.9 2.5.9 4 0 1.6-.3 2.9-.9 4a6.4 6.4 0 0 1-6 3.6Zm0-2.4c.9 0 1.6-.2 2.2-.7.6-.4 1-1 1.3-1.9a7.5 7.5 0 0 0 0-5.2 5 5 0 0 0-1.3-1.9 3.8 3.8 0 0 0-4.4 0 6 6 0 0 0-1.4 2c-.2.7-.4 1.6-.4 2.5 0 1 .2 1.9.4 2.6.3.8.8 1.5 1.4 2 .5.4 1.3.6 2.2.6Zm12.8 2.1-4.3-14.7h3L66 26.3h.2L69 15.5h3l2.8 10.8h.1L78 15.5h3l-4.4 14.8h-2.9l-3-10.7h-.2l-3 10.6h-2.9Zm26-14.7v2.3h-8v-2.3h8Zm-6-3.5h3v14c0 .5 0 .9.2 1.2.2.3.4.4.6.5l1 .2h.5l.4-.1.5 2.3-.7.2a5.6 5.6 0 0 1-3.2-.3 3 3 0 0 1-1.6-1.3c-.4-.6-.6-1.3-.6-2.2V12Zm12.3 9.5v8.8H94V10.6h2.9V18h.2a4 4 0 0 1 1.5-1.9 5 5 0 0 1 2.8-.7c1 0 2 .2 2.7.7.7.4 1.3 1 1.7 1.8.5.8.7 1.9.7 3v9.4h-2.9v-9a4 4 0 0 0-.8-2.5 3 3 0 0 0-2.4-.9c-.6 0-1.2.2-1.8.4a3 3 0 0 0-1.2 1.3c-.3.6-.5 1.2-.5 2Z"/>
  <rect width="158.3" height="38.8" x=".8" y="47" fill="#000" fill-opacity=".5" rx="19.4"/>
  <rect width="158.3" height="38.8" x=".8" y="47" stroke="url(#a)" stroke-width="1.7" rx="19.4"/>
  <path fill="#fff" d="M26.4 61.9c-.1-1-.6-1.6-1.3-2.1-.7-.5-1.7-.8-2.8-.8-.8 0-1.5.2-2 .4-.7.3-1.1.6-1.5 1-.3.5-.4 1-.4 1.5s0 .9.3 1.2c.2.4.5.7.9.9l1.1.6 1.2.3 2 .5 1.9.6 1.8 1c.6.5 1 1 1.4 1.7a5.2 5.2 0 0 1-.3 5.2c-.6.9-1.5 1.6-2.6 2-1 .6-2.3.8-3.9.8-1.4 0-2.7-.2-3.8-.7-1-.5-2-1.1-2.5-2-.6-.8-1-1.9-1-3h3c0 .7.2 1.2.6 1.7.5.5 1 .8 1.6 1 .6.3 1.3.4 2.1.4a6 6 0 0 0 2.2-.4c.7-.3 1.2-.6 1.6-1.1.4-.5.6-1 .6-1.7 0-.6-.2-1-.5-1.4a5 5 0 0 0-1.4-1 13 13 0 0 0-1.9-.6l-2.3-.6a9 9 0 0 1-3.7-1.9 4 4 0 0 1-1.4-3.3c0-1.1.3-2.1 1-3a6 6 0 0 1 2.4-2 10 10 0 0 1 7.1.1 6 6 0 0 1 2.4 1.9c.6.8.9 1.7 1 2.8h-3Zm13.3-.3V64h-8v-2.3h8Zm-6-3.5h3v14c0 .5 0 1 .2 1.2l.6.6 1 .1h.5l.4-.1.5 2.4c-.1 0-.4 0-.7.2a5.6 5.6 0 0 1-3.2-.3c-.7-.3-1.2-.8-1.6-1.3-.4-.6-.6-1.4-.6-2.3V58.1Zm9.1 18.3V61.6h2.8V64h.2c.2-.8.7-1.4 1.4-1.9a4 4 0 0 1 2.3-.7 12.2 12.2 0 0 1 1.2 0v2.8h-.6l-.9-.1a4 4 0 0 0-1.8.4 3.2 3.2 0 0 0-1.7 2.9v9h-2.9Zm14.6.3a6 6 0 0 1-2.6-.5c-.7-.4-1.3-.9-1.8-1.5-.4-.7-.6-1.5-.6-2.5 0-.8.1-1.5.5-2 .3-.6.7-1 1.3-1.3.5-.3 1.1-.6 1.8-.7l2-.4a8401 8401 0 0 0 3.4-.6c.2-.1.4-.4.4-.7 0-1-.3-1.6-.8-2-.4-.5-1.1-.7-2-.7-1 0-1.8.2-2.3.6-.6.4-1 1-1.2 1.4l-2.7-.6a5.2 5.2 0 0 1 3.6-3.4 8.3 8.3 0 0 1 4.4-.1 4.6 4.6 0 0 1 3.3 2.3c.3.6.5 1.5.5 2.6v9.8h-2.8v-2a4.4 4.4 0 0 1-2.3 2c-.6.2-1.3.3-2.1.3Zm.6-2.3a4 4 0 0 0 2-.5 3.3 3.3 0 0 0 1.8-2.8v-2c-.1.2-.3.3-.6.4l-1 .2a112 112 0 0 1-3.5.6l-1.1.7c-.3.3-.4.7-.4 1.3 0 .7.3 1.2.8 1.6a4 4 0 0 0 2 .5Zm17.3-12.8V64h-8v-2.3h8Zm-5.9-3.5h3v14c0 .5 0 1 .2 1.2.1.3.3.5.6.6l.9.1h.6l.4-.1.5 2.4c-.2 0-.4 0-.7.2a5.6 5.6 0 0 1-3.3-.3 5 5 0 0 1-1.6-1.3c-.4-.6-.6-1.4-.6-2.3V58.1Zm15.3 18.6a6.7 6.7 0 0 1-6.2-3.6 9 9 0 0 1-.8-4 9 9 0 0 1 .8-4c.6-1.1 1.4-2 2.4-2.7a7.2 7.2 0 0 1 6-.6 5.9 5.9 0 0 1 3.6 3.7c.3.9.5 2 .5 3.4v1H79.3v-2.2h8.9c0-.7-.2-1.4-.5-2a3.5 3.5 0 0 0-3.2-1.9c-.8 0-1.5.2-2.1.6A4 4 0 0 0 81 66c-.3.6-.5 1.3-.5 2v1.7c0 1 .2 1.8.6 2.5.3.7.8 1.2 1.4 1.6a5 5 0 0 0 2.2.5c.6 0 1 0 1.5-.2l1.2-.7c.3-.3.5-.7.7-1.2l2.7.5a5 5 0 0 1-1.1 2c-.6.7-1.3 1.2-2.1 1.5a9 9 0 0 1-3 .5Zm15.7 5.5c-1.2 0-2.2-.1-3-.5a5.1 5.1 0 0 1-3.2-2.9l2.4-1 .7 1c.2.3.6.5 1.1.8.5.2 1.2.3 2 .3 1 0 2-.3 2.7-.8.7-.5 1-1.4 1-2.5v-3h-.1l-.8 1.1a4 4 0 0 1-1.3 1 5 5 0 0 1-2.2.5c-1.2 0-2.2-.3-3.1-.9-1-.5-1.7-1.3-2.3-2.4-.5-1-.8-2.4-.8-4 0-1.5.3-2.9.8-4a5.7 5.7 0 0 1 5.4-3.5c1 0 1.7.2 2.2.5.6.3 1 .7 1.3 1l.8 1.1h.2v-2.4h2.8v15.1a5 5 0 0 1-.9 3.1c-.6.8-1.4 1.4-2.4 1.8-1 .4-2 .6-3.3.6Zm0-8.4c.8 0 1.5-.2 2-.6.6-.4 1-1 1.3-1.7a7 7 0 0 0 0-5.2 4 4 0 0 0-1.3-1.8c-.5-.4-1.2-.6-2-.6-1 0-1.7.2-2.2.7-.6.4-1 1-1.3 1.8a6.8 6.8 0 0 0 0 5c.3.8.7 1.4 1.3 1.8.6.4 1.3.6 2.1.6Zm10.4 2.6V61.6h3v14.8h-3Zm1.5-17c-.5 0-1-.2-1.3-.5a2 2 0 0 1-.5-1.2c0-.5.2-1 .5-1.2.4-.4.8-.5 1.3-.5s1 .1 1.3.5c.3.3.5.7.5 1.2 0 .4-.2.8-.5 1.2-.4.3-.8.5-1.3.5Zm11.6 17.3c-1.4 0-2.7-.3-3.7-1a6 6 0 0 1-2.4-2.6 9 9 0 0 1-.9-4 9 9 0 0 1 .9-4c.5-1.1 1.3-2 2.3-2.7a7.2 7.2 0 0 1 6-.6 5.9 5.9 0 0 1 3.6 3.7c.4.9.5 2 .5 3.4v1h-11.7v-2.2h9c0-.7-.2-1.4-.5-2a3.5 3.5 0 0 0-3.3-1.9c-.8 0-1.5.2-2 .6a4 4 0 0 0-1.5 1.6c-.3.6-.4 1.3-.4 2v1.7c0 1 .1 1.8.5 2.5.3.7.8 1.2 1.5 1.6.6.3 1.3.5 2.2.5.5 0 1 0 1.4-.2.5-.2.9-.4 1.2-.7.3-.3.6-.7.7-1.2l2.8.5a5 5 0 0 1-1.2 2c-.6.7-1.3 1.2-2.1 1.5-.8.3-1.8.5-2.9.5Zm20.6-11.5-2.6.5a3 3 0 0 0-.6-1l-.9-.7c-.4-.2-.9-.3-1.5-.3-.8 0-1.5.2-2 .6-.6.3-.8.8-.8 1.4 0 .5.1.9.5 1.2.4.3 1 .5 1.8.7l2.3.5c1.4.3 2.4.8 3 1.5.7.6 1 1.5 1 2.5a4 4 0 0 1-.7 2.4 5 5 0 0 1-2.1 1.6c-1 .4-2 .6-3.2.6a7 7 0 0 1-4-1c-1-.8-1.7-1.8-2-3.1l2.8-.4a3 3 0 0 0 1.1 1.6c.5.4 1.2.6 2.1.6a4 4 0 0 0 2.3-.6c.5-.4.8-.9.8-1.5 0-.4-.2-.8-.5-1.1-.4-.3-.9-.6-1.6-.7l-2.5-.6a6 6 0 0 1-3-1.5c-.7-.7-1-1.5-1-2.6 0-.9.2-1.6.7-2.3.5-.6 1.2-1.1 2-1.5.9-.4 1.9-.5 3-.5 1.6 0 2.8.3 3.7 1 1 .7 1.6 1.6 1.9 2.7Z"/>
  <defs>
    <linearGradient id="a" x1="160" x2="0" y1="66.4" y2="66.4" gradientUnits="userSpaceOnUse">
      <stop stop-color="#BB02FF"/>
      <stop offset="1" stop-color="#8602FF"/>
    </linearGradient>
  </defs>
</svg>
